HIERARCHY
ROOT Hips
{
	OFFSET 0.000000 0.000000 0.000000 
	CHANNELS 6 Xposition Yposition Zposition Yrotation Zrotation Xrotation 
	JOINT Lumbar
	{
		OFFSET 0.000000 0.000000 0.000000 
		CHANNELS 3 Zrotation Xrotation Yrotation
		JOINT Neck
		{
			OFFSET 0.000000 0.445665 0.000000 
			CHANNELS 3 Zrotation Xrotation Yrotation
			End Site
			{
				OFFSET 0.000000 0.227535 0.000000 
			}
		}
		JOINT RightShoulder
		{
			OFFSET 0.019635 0.377685 0.194865 
			CHANNELS 3 Zrotation Xrotation Yrotation
			JOINT RightElbow
			{
				OFFSET 0.000000 -0.243375 0.000000 
				CHANNELS 2 Zrotation Yrotation
				JOINT RightWrist
				{
					OFFSET 0.000000 -0.264825 0.000000 
					CHANNELS 2 Zrotation Xrotation
					End Site
					{
						OFFSET 0.006600 -0.176220 0.000990 
					}
				}
			}
		}
		JOINT LeftShoulder
		{
			OFFSET 0.019635 0.377685 -0.194865 
			CHANNELS 3 Zrotation Xrotation Yrotation
			JOINT LeftElbow
			{
				OFFSET 0.000000 -0.243375 0.000000 
				CHANNELS 2 Zrotation Yrotation
				JOINT LeftWrist
				{
					OFFSET 0.000000 -0.264825 0.000000 
					CHANNELS 2 Zrotation Xrotation
					End Site
					{
						OFFSET 0.006600 -0.176220 -0.000990 
					}
				}
			}
		}
	}
	JOINT RightHip
	{
		OFFSET 0.052140 -0.069960 0.075570 
		CHANNELS 3 Zrotation Xrotation Yrotation
		JOINT RightKnee
		{
			OFFSET 0.000000 -0.402270 0.000000 
			CHANNELS 1 Zrotation
			JOINT RightAnkle
			{
				OFFSET 0.000000 -0.404085 0.000000 
				CHANNELS 3 Zrotation Xrotation Yrotation
				End Site
				{
					OFFSET 0.204105 -0.089430 0.008415 
				}
			}
		}
	}
	JOINT LeftHip
	{
		OFFSET 0.052140 -0.069960 -0.075570 
		CHANNELS 3 Zrotation Xrotation Yrotation
		JOINT LeftKnee
		{
			OFFSET 0.000000 -0.402270 0.000000 
			CHANNELS 1 Zrotation
			JOINT LeftAnkle
			{
				OFFSET 0.000000 -0.404085 0.000000 
				CHANNELS 3 Zrotation Xrotation Yrotation
				End Site
				{
					OFFSET 0.204105 -0.089430 -0.008415 
				}
			}
		}
	}
}
MOTION
Frames: 33
Frame Time: 0.02
-0.00508 -0.00166 0.00369 26.48068 -28.98585 -6.1828 45.12748 2.87491 -7.4236 9.5024 3.76166 -0.86292 13.53004 -14.70503 45.23989 67.04513 87.67987 11.5708 -3.62928 7.26049 15.64199 -36.37317 82.44052 -79.2335 1.88323 1.819 43.23237 -0.1644 -1.54276 -20.75969 -6.95474 -3.38304 -3.8888 46.91467 4.68494 7.53132 -25.16559 -6.79825 2.09012 3.26494
-0.00395 -0.00167 0.00347 26.52716 -29.40841 -6.23351 45.56455 2.7804 -7.0734 9.20954 3.70588 -0.86542 11.57346 -14.31077 39.10895 62.44393 87.3143 10.34803 -3.09389 5.20128 15.34324 -33.91453 78.65588 -80.99466 2.39916 1.36489 43.56804 -0.22838 -2.43506 -20.63312 -6.89929 -3.3369 -3.86328 47.3276 4.78027 7.64478 -25.14016 -6.79028 2.07059 3.25508
-0.00283 -0.00168 0.00325 26.57366 -29.82951 -6.28405 46.00044 2.68601 -6.7245 8.91584 3.65001 -0.868 9.61703 -13.91874 32.99752 57.8584 86.95084 9.12992 -2.56027 3.14285 15.04594 -31.45994 74.88308 -82.7504 2.9138 0.91233 43.9023 -0.29219 -3.32499 -20.50694 -6.844 -3.29089 -3.83783 47.73893 4.87531 7.7578 -25.11481 -6.78233 2.05112 3.24526
-0.00171 -0.0017 0.00304 26.62002 -30.25075 -6.3346 46.4362 2.59176 -6.37541 8.62359 3.59436 -0.87051 7.6655 -13.5259 26.88564 53.27162 86.58657 7.91106 -2.02655 1.08906 14.74828 -29.00842 71.11014 -84.50591 3.42811 0.45967 44.23687 -0.35599 -4.21464 -20.38077 -6.78873 -3.24488 -3.81239 48.15053 4.97034 7.87088 -25.08945 -6.77437 2.03165 3.23543
-0.00058 -0.00171 0.00282 26.66631 -30.67352 -6.38534 46.87304 2.49745 -6.02496 8.33285 3.53889 -0.87291 5.71609 -13.13032 20.75384 48.66863 86.21978 6.68721 -1.49103 -0.96338 14.44877 -26.55387 67.32525 -86.2675 3.94383 0.00534 44.57297 -0.41994 -5.10642 -20.2542 -6.73331 -3.19878 -3.78689 48.56385 5.06566 7.98449 -25.06402 -6.76639 2.0121 3.22557
0.00054 -0.00172 0.0026 26.71323 -31.09107 -6.43543 47.30689 2.40292 -5.67932 8.03297 3.48217 -0.87589 3.74509 -12.74572 14.68548 44.12005 85.8633 5.48125 -0.96143 -3.03418 14.15598 -24.09917 63.57804 -88.0112 4.45629 -0.44352 44.90335 -0.48342 -5.99233 -20.12885 -6.6783 -3.15295 -3.76154 48.97099 5.16012 8.09627 -25.03883 -6.75852 1.99281 3.21583
0.00166 -0.00173 0.00238 26.75884 -31.51865 -6.48677 47.74632 2.30892 -5.32439 7.75174 3.42806 -0.87769 1.81956 -12.33981 8.49701 39.46727 85.48662 4.24068 -0.4205 -5.0659 13.8506 -21.6484 59.75948 -89.78717 4.97411 -0.90265 45.24486 -0.54783 -6.88931 -20.0012 -6.62251 -3.10661 -3.7359 49.39008 5.25618 8.21152 -25.01319 -6.75043 1.97302 3.20585
0.00279 -0.00174 0.00216 26.80564 -31.937 -6.53696 48.18055 2.21445 -4.97803 7.45347 3.37148 -0.88059 -0.14767 -11.95288 2.41772 34.91007 85.12831 3.03189 0.10999 -7.13341 13.55575 -19.19233 56.00612 -91.53666 5.48815 -1.3528 45.57615 -0.61128 -7.77566 -19.87565 -6.56746 -3.06077 -3.71055 49.79818 5.35081 8.32371 -24.98795 -6.74254 1.95368 3.19609
0.00392 -0.00175 0.00195 26.85401 -32.34412 -6.58576 48.60885 2.11926 -4.64202 7.13331 3.31206 -0.88479 -2.16866 -11.59182 -3.5243 30.47011 84.79348 1.86214 0.62786 -9.2475 13.27803 -16.73475 52.33329 -93.2415 5.99322 -1.79018 45.89486 -0.67401 -8.65116 -19.75269 -6.51323 -3.01536 -3.68547 50.19287 5.44353 8.43161 -24.96325 -6.73489 1.93493 3.18659
0.00501 -0.00177 0.00172 26.8937 -32.81603 -6.6426 49.07255 2.02777 -4.24605 6.93583 3.26954 -0.88139 -3.88887 -11.08997 -10.24481 25.3567 84.32664 0.46833 1.21878 -11.10229 12.91454 -14.30067 48.19952 -95.16638 6.53684 -2.29562 46.28566 -0.74223 -9.59552 -19.61492 -6.45403 -2.96694 -3.65857 50.66479 5.54677 8.56255 -24.93559 -6.72585 1.91294 3.17559
0.0062 -0.00177 0.00151 26.95144 -33.15113 -6.68246 49.46072 1.92878 -3.97686 6.48182 3.19103 -0.89407 -6.23741 -10.87992 -15.32967 21.6636 84.1363 -0.4531 1.65529 -13.49783 12.72379 -11.80811 45.03698 -96.65043 7.00742 -2.66091 46.52459 -0.79803 -10.39038 -19.50835 -6.40549 -2.92523 -3.63571 50.97373 5.62812 8.64596 -24.91408 -6.71974 1.89769 3.16774
0.00768 -0.00178 0.00131 27.06131 -33.1082 -6.67539 49.64684 1.80655 -4.05664 5.29796 3.01535 -0.95096 -10.37806 -11.52114 -15.82837 21.90968 84.73493 -0.06195 1.66784 -17.44373 13.07987 -9.22742 44.57555 -96.71576 7.2054 -2.60923 46.34097 -0.82643 -10.80711 -19.48843 -6.38512 -2.89888 -3.62239 50.83144 5.64628 8.5882 -24.91044 -6.7217 1.90179 3.16887
0.00926 -0.00178 0.00112 27.18868 -32.9285 -6.65131 49.75623 1.67733 -4.26344 3.86171 2.80325 -1.02393 -15.13471 -12.44552 -14.70357 23.57366 85.60966 0.80095 1.52643 -21.91837 13.59626 -6.57666 45.08286 -96.37338 7.3418 -2.42238 46.00611 -0.84127 -11.06857 -19.49962 -6.37563 -2.87973 -3.61338 50.52639 5.64298 8.48429 -24.91281 -6.72658 1.91255 3.17311
0.01079 -0.00178 0.00094 27.30656 -32.81295 -6.63524 49.89726 1.55295 -4.41149 2.55731 2.60674 -1.0896 -19.56829 -13.20791 -14.3846 24.56225 86.33317 1.43674 1.45433 -26.11025 13.9913 -3.90796 45.12314 -96.35899 7.55557 -2.31913 45.74405 -0.85775 -11.37906 -19.49589 -6.36192 -2.85937 -3.60348 50.29818 5.65164 8.409 -24.91179 -6.73005 1.91967 3.17569
0.01237 -0.00181 0.00069 27.43159 -32.68823 -6.61802 50.05149 1.42126 -4.56442 1.17825 2.41413 -1.15554 -24.19515 -14.11342 -13.77204 25.68692 87.14932 2.12535 1.38045 -30.49074 14.58997 -1.44057 45.2777 -95.75705 7.5674 -2.12388 45.46379 -0.89269 -11.77683 -19.49556 -6.34531 -2.83069 -3.5893 50.05679 5.65122 8.30297 -24.91355 -6.73384 1.92922 3.17924
0.01386 -0.00177 0.0006 27.54508 -32.55079 -6.59911 50.16039 1.30351 -4.73694 -0.10295 2.20487 -1.22438 -28.55292 -14.78552 -13.39013 26.86141 87.85876 2.81808 1.2791 -34.59336 14.8043 1.45179 45.42476 -96.26251 7.9769 -2.08589 45.18648 -0.88674 -11.96018 -19.4955 -6.33719 -2.8206 -3.5848 49.80521 5.66426 8.24798 -24.91095 -6.73769 1.93548 3.18162
0.01511 -0.00152 0.00089 27.62918 -32.40723 -6.57997 50.16012 1.22291 -4.93489 -1.06886 1.95772 -1.30032 -32.11914 -14.76487 -14.01022 27.84529 88.0219 3.38446 1.09345 -37.88368 13.90403 5.58784 45.30317 -100.0977 9.57248 -2.53574 44.94734 -0.76467 -11.55372 -19.48858 -6.35099 -2.86384 -3.60806 49.55797 5.72313 8.36394 -24.89473 -6.74077 1.92932 3.17908
0.01626 -0.00121 0.00133 27.69977 -32.25656 -6.55959 50.11731 1.15718 -5.14753 -1.92377 1.69524 -1.37807 -35.37228 -14.49653 -14.92206 28.82617 88.09885 3.94224 0.89319 -40.85883 12.61552 10.12839 45.14247 -105.02969 11.55741 -3.14468 44.71787 -0.6032 -10.94339 -19.48088 -6.37274 -2.92486 -3.64052 49.3076 5.79572 8.52998 -24.87395 -6.74386 1.91989 3.17541
0.01745 -0.00092 0.00172 27.77216 -32.11206 -6.53973 50.09595 1.08657 -5.35198 -2.81926 1.44035 -1.453 -38.70371 -14.32645 -15.72569 29.79596 88.34041 4.51903 0.73114 -43.92452 11.51204 14.43206 45.00631 -109.34652 13.31555 -3.66749 44.4884 -0.46401 -10.45006 -19.47347 -6.39011 -2.97529 -3.66738 49.0634 5.85973 8.66013 -24.85529 -6.74711 1.91312 3.17291
0.01869 -0.00063 0.00205 27.8636 -31.95009 -6.51981 50.06341 1.00761 -5.56785 -3.76774 1.18154 -1.53689 -42.33388 -14.2226 -16.3818 30.86881 88.07664 5.05048 0.43438 -47.23673 10.37173 18.98035 44.87476 -114.14083 15.27954 -4.24424 44.23452 -0.30569 -9.84915 -19.46724 -6.41114 -3.03655 -3.70035 48.7931 5.93266 8.84173 -24.83652 -6.74977 1.90179 3.16785
0.01979 -0.00035 0.00253 27.91178 -31.82495 -6.4995 50.04452 0.94988 -5.76103 -4.57305 0.92773 -1.60239 -45.2506 -13.92338 -17.42043 31.70662 88.823 5.66573 0.41178 -49.94671 9.22155 23.09149 44.71252 -118.20768 16.91111 -4.74782 44.03645 -0.17826 -9.42511 -19.45816 -6.42626 -3.07938 -3.72276 48.57903 5.99085 8.93165 -24.81695 -6.7536 1.89889 3.16767
0.02057 -8e-05 0.00334 27.84501 -31.80081 -6.48206 50.07849 0.9453 -5.89371 -5.03495 0.69169 -1.61606 -46.34332 -13.10112 -19.57889 31.8995 92.52872 6.53084 1.19209 -51.1239 8.07502 26.08483 44.46367 -119.9792 17.49976 -5.01281 43.98507 -0.14401 -9.54719 -19.43962 -6.42312 -3.06703 -3.71347 48.51757 6.00225 8.73026 -24.79526 -6.76093 1.92178 3.18244
0.02121 0.00018 0.00428 27.73495 -31.81505 -6.46364 50.12703 0.96198 -6.00134 -5.3503 0.4613 -1.61118 -46.71133 -12.0984 -22.09297 31.84847 97.2195 7.47354 2.24094 -51.69085 6.94492 28.58465 44.18271 -120.98008 17.74387 -5.198 43.99121 -0.14262 -9.8536 -19.4184 -6.4137 -3.0355 -3.69328 48.51428 5.99885 8.43958 -24.77312 -6.76938 1.95294 3.20195
0.02191 0.00043 0.00517 27.64372 -31.81407 -6.44339 50.16635 0.97013 -6.11603 -5.71569 0.22843 -1.61509 -47.36423 -11.20482 -24.36681 31.89939 101.36695 8.36968 3.14084 -52.5028 5.84627 31.19179 43.91885 -122.35554 18.16865 -5.41996 43.97517 -0.12745 -10.07131 -19.39938 -6.40707 -3.01268 -3.67826 48.48739 6.00424 8.20747 -24.75175 -6.77712 1.97914 3.2185
0.02263 0.00073 0.00605 27.55522 -31.8036 -6.43279 50.21567 0.97387 -6.24956 -6.14888 -0.00517 -1.61757 -48.20015 -10.18499 -26.99095 31.98751 105.93715 9.32019 4.15681 -53.45063 4.56252 34.32374 43.64296 -123.69132 18.5153 -5.64893 43.94283 -0.10603 -10.30274 -19.3762 -6.40094 -2.99043 -3.66264 48.44825 6.00179 7.90264 -24.72765 -6.78571 2.01022 3.23837
0.02328 0.00093 0.00697 27.45143 -31.82184 -6.40174 50.24747 0.99183 -6.33771 -6.4055 -0.23596 -1.61857 -48.47945 -9.39256 -28.95476 31.94156 109.8346 10.16755 4.99117 -53.96195 3.68249 36.21901 43.38575 -124.881 18.92522 -5.83769 43.95777 -0.10595 -10.55188 -19.36106 -6.39221 -2.9623 -3.64557 48.44856 6.01149 7.72552 -24.70945 -6.79281 2.03323 3.25252
0.02381 0.00086 0.00794 27.31205 -31.91232 -6.31568 50.23331 1.04234 -6.30614 -6.22661 -0.45801 -1.62022 -47.45925 -9.23656 -29.11243 31.56973 111.87235 10.78303 5.29246 -53.52231 3.83104 35.00828 43.1785 -126.12513 19.69947 -5.97515 44.09123 -0.15672 -10.80742 -19.36863 -6.37739 -2.9217 -3.62685 48.5437 6.06277 7.93933 -24.70641 -6.79537 2.03103 3.24905
0.02429 0.0007 0.00894 27.15977 -32.02983 -6.20896 50.19987 1.10668 -6.22975 -5.87234 -0.67774 -1.62098 -45.89279 -9.32247 -28.5759 31.07395 113.15924 11.27922 5.3963 -52.64438 4.39891 32.54068 42.99236 -127.19645 20.52747 -6.06765 44.26971 -0.22794 -11.07485 -19.38442 -6.36019 -2.87596 -3.60706 48.67683 6.12604 8.28153 -24.71027 -6.79643 2.02057 3.23978
0.02478 0.00059 0.00994 27.01586 -32.1336 -6.11079 50.17185 1.1655 -6.17418 -5.58853 -0.90005 -1.62198 -44.54015 -9.32353 -28.28323 30.64503 114.62793 11.78204 5.56714 -51.90221 4.83538 30.51307 42.80369 -128.16044 21.26011 -6.15226 44.42645 -0.29014 -11.33639 -19.39649 -6.34433 -2.83306 -3.58789 48.7922 6.18067 8.55378 -24.71092 -6.79829 2.0145 3.23363
0.02531 0.00046 0.01092 26.85915 -32.24538 -6.0157 50.15937 1.22159 -6.11595 -5.3395 -1.11591 -1.62297 -43.31292 -9.21651 -28.29164 30.16381 116.78586 12.48582 5.83972 -51.41433 5.03763 28.99014 42.58678 -129.86897 22.28129 -6.34945 44.59133 -0.35269 -11.60685 -19.40827 -6.32719 -2.78727 -3.56773 48.91058 6.24767 8.87151 -24.70905 -6.79969 2.00609 3.22563
0.02574 0.00033 0.01194 26.72746 -32.34571 -5.90981 50.10854 1.2867 -6.0528 -4.97711 -1.3445 -1.62411 -41.69731 -9.38905 -27.52086 29.76446 117.33985 12.74498 5.85451 -50.29067 5.80807 26.16442 42.43074 -130.01313 22.71762 -6.30788 44.7483 -0.4185 -11.85847 -19.4228 -6.31219 -2.74664 -3.54957 49.03231 6.2927 9.12668 -24.71761 -6.80168 2.00042 3.21998
0.02597 0.00026 0.0131 26.66097 -32.41357 -5.77526 49.96691 1.3705 -5.98806 -4.35601 -1.61015 -1.625 -39.20644 -10.32241 -24.61434 29.62963 113.44955 11.77812 5.16604 -47.60761 8.20969 19.69782 42.46725 -125.73052 21.53727 -5.57125 44.87953 -0.49164 -12.06086 -19.44154 -6.30418 -2.72063 -3.53672 49.14407 6.26808 9.17344 -24.72574 -6.80546 2.00482 3.22276
0.0261 0.00018 0.0143 26.62173 -32.46768 -5.6316 49.78525 1.46348 -5.91961 -3.62584 -1.8881 -1.62631 -36.33604 -11.52102 -20.97339 29.58123 108.00495 10.37378 4.23132 -44.28681 11.13821 12.02839 42.55931 -119.91168 19.76736 -4.60456 44.99952 -0.56637 -12.24204 -19.46305 -6.29834 -2.70026 -3.52608 49.26081 6.22238 9.15393 -24.7512 -6.8099 2.0121 3.22798
